<?xml version="1.0" encoding="UTF-8" standalone="no"?>
<svg width="456" height="456" viewBox="0 0 456 456" version="1.1" xmlns="http://www.w3.org/2000/svg">
    <g fill="#FFFFFF">
        <path d="M249.4 68l8.8 34.8c11.5 2.8 22.4 7.3 32.2 13.3l30.8-18.5 34.7 34.7-18.5 30.8c6 9.8 10.5 20.7 13.3 32.2l34.8 8.8v49.1l-34.8 8.8c-2.8 11.5-7.3 22.4-13.3 32.2l18.5 30.8-34.7 34.7-30.8-18.5c-9.8 6-20.7 10.5-32.2 13.3l-8.8 34.8h-49.1l-8.8-34.8c-11.5-2.8-22.4-7.3-32.2-13.3l-30.8 18.5-34.7-34.7 18.5-30.8c-6-9.8-10.5-20.7-13.3-32.2L68 253.1V204l34.8-8.8c2.8-11.5 7.3-22.4 13.3-32.2l-18.5-30.8 34.7-34.7 30.8 18.5c9.8-6 20.7-10.5 32.2-13.3l8.8-34.8h49.1zm-24.5 102.5c-32.9 0-59.5 26.6-59.5 59.5s26.6 59.5 59.5 59.5 59.5-26.6 59.5-59.5-26.6-59.5-59.5-59.5z"/>
    </g>
</svg>
